<svg id="Layer_1" data-name="Layer 1" xmlns="http://www.w3.org/2000/svg" viewBox="0 0 1366 669"><defs><style>.cls-1{fill:#aafde5;}.cls-2{fill:#da67a0;}.cls-3{fill:#553681;}</style></defs><title>Stepper From background-01</title><rect class="cls-1" y="-11" width="1366" height="695"/><rect class="cls-2" x="1015.96" y="-277.64" width="8.91" height="1248.35" transform="translate(543.91 -620.04) rotate(45)"/><polygon class="cls-2" points="264 149 246 149 246 131 238 131 238 149 220 149 220 157 238 157 238 175 246 175 246 157 264 157 264 149"/><path class="cls-3" d="M36.52-30.09-51.12,56.62q-.77,4.76-1.1,9.56L46.09-31.09C42.89-30.91,39.7-30.57,36.52-30.09Z"/><path class="cls-3" d="M145.2,25.23,3.05,165.88c1.88,1,3.79,1.93,5.72,2.81L148,31C147.1,29,146.18,27.13,145.2,25.23Z"/><path class="cls-3" d="M140.19,16.62-5.51,160.78C-3.78,161.92-2,163-.25,164L143.4,21.92C142.38,20.13,141.32,18.36,140.19,16.62Z"/><path class="cls-3" d="M152.93,44.73,22.47,173.81q3.36,1,6.78,1.76l125.37-124Q153.89,48.11,152.93,44.73Z"/><path class="cls-3" d="M134.5,8.68-13.39,155c1.58,1.28,3.2,2.51,4.84,3.68L138.13,13.56C137,11.9,135.77,10.28,134.5,8.68Z"/><path class="cls-3" d="M149.48,34.58,12.35,170.25q3.08,1.26,6.21,2.32L151.73,40.82C151,38.72,150.3,36.64,149.48,34.58Z"/><path class="cls-3" d="M18.33-25.66-46.49,38.47a105.27,105.27,0,0,0-3.42,11.85L30.21-28.95A103.06,103.06,0,0,0,18.33-25.66Z"/><path class="cls-3" d="M128.18,1.37-20.63,148.6q2.18,2.11,4.44,4.07L132.2,5.85C130.91,4.33,129.57,2.83,128.18,1.37Z"/><path class="cls-3" d="M96.43-21.51-43.17,116.61q1.31,2.9,2.79,5.71l142.49-141Q99.31-20.18,96.43-21.51Z"/><path class="cls-3" d="M86.7-25.46-47,106.84c.7,2.08,1.46,4.15,2.3,6.19L92.87-23.09C90.83-23.94,88.78-24.73,86.7-25.46Z"/><path class="cls-3" d="M105.39-16.8-38.56,125.62q1.55,2.67,3.25,5.26L110.61-13.5C108.9-14.66,107.15-15.76,105.39-16.8Z"/><path class="cls-3" d="M51.43-31.27-52.45,71.51c0,2.76,0,5.53.18,8.29L59.72-31C57-31.2,54.19-31.29,51.43-31.27Z"/><path class="cls-3" d="M-21.41-1A104.25,104.25,0,0,0-43,30L9.79-22.32A104.56,104.56,0,0,0-21.41-1Z"/><path class="cls-3" d="M121.22-5.32-27.25,141.57c1.3,1.52,2.66,3,4.06,4.46L125.63-1.22Q123.47-3.35,121.22-5.32Z"/><path class="cls-3" d="M64.43-30.56-51.88,84.51q.39,3.73,1.06,7.43L71.84-29.43Q68.15-30.12,64.43-30.56Z"/><path class="cls-3" d="M113.63-11.39-33.23,133.92c1.17,1.64,2.38,3.26,3.65,4.85l148-146.45C116.87-9,115.26-10.2,113.63-11.39Z"/><path class="cls-3" d="M96.7,168.22a105,105,0,0,0,49.84-49.32Z"/><path class="cls-3" d="M156.78,68.07l-111,109.84c2.79.17,5.58.24,8.37.19L156.87,76.44Q157,72.26,156.78,68.07Z"/><path class="cls-3" d="M154,97.94,75.66,175.46a105.23,105.23,0,0,0,12.18-3.57l62.47-61.81A104.11,104.11,0,0,0,154,97.94Z"/><path class="cls-3" d="M76.09-28.53-50,96.2c.5,2.26,1.08,4.52,1.73,6.75L82.83-26.72Q79.48-27.74,76.09-28.53Z"/><path class="cls-3" d="M156.58,81.83l-97.05,96c3.24-.23,6.48-.6,9.7-1.13l86.12-85.21Q156.19,86.71,156.58,81.83Z"/><path class="cls-3" d="M155.43,55.83,33.53,176.43c2.48.45,5,.81,7.48,1.08L156.43,63.31C156.19,60.81,155.85,58.31,155.43,55.83Z"/></svg>